<mxfile host="app.diagrams.net" modified="2022-03-14T04:05:40.248Z" agent="5.0 (Windows NT 10.0; Win64; x64) AppleWebKit/537.36 (KHTML, like Gecko) Chrome/99.0.4844.51 Safari/537.36" etag="n9ov1meIjydBs1j_SUMO" version="17.1.2" type="github">
  <diagram id="siSULi2R0V3zfC1YWhj9" name="Page-1">
    <mxGraphModel dx="1209" dy="618" grid="1" gridSize="10" guides="1" tooltips="1" connect="1" arrows="1" fold="1" page="1" pageScale="1" pageWidth="827" pageHeight="1169" math="0" shadow="0">
      <root>
        <mxCell id="0" />
        <mxCell id="1" parent="0" />
        <mxCell id="Ol30VDJHNQLSPok4_PoT-1" value="&lt;br&gt;&lt;br&gt;&lt;br&gt;&lt;br&gt;&lt;br&gt;&lt;br&gt;&lt;b&gt;本地仓库1&lt;/b&gt;&lt;br&gt;" style="rounded=1;whiteSpace=wrap;html=1;fillColor=#fff2cc;strokeColor=#d6b656;" vertex="1" parent="1">
          <mxGeometry x="235" y="250" width="150" height="100" as="geometry" />
        </mxCell>
        <mxCell id="Ol30VDJHNQLSPok4_PoT-2" value="" style="shape=datastore;whiteSpace=wrap;html=1;" vertex="1" parent="1">
          <mxGeometry x="280" y="260" width="60" height="60" as="geometry" />
        </mxCell>
        <mxCell id="Ol30VDJHNQLSPok4_PoT-9" value="&lt;b&gt;远程&lt;br&gt;仓库&lt;/b&gt;" style="rounded=1;whiteSpace=wrap;html=1;fillColor=#fff2cc;strokeColor=#d6b656;align=right;" vertex="1" parent="1">
          <mxGeometry x="470" y="90" width="150" height="100" as="geometry" />
        </mxCell>
        <mxCell id="Ol30VDJHNQLSPok4_PoT-10" value="" style="shape=datastore;whiteSpace=wrap;html=1;" vertex="1" parent="1">
          <mxGeometry x="515" y="120" width="60" height="60" as="geometry" />
        </mxCell>
        <mxCell id="Ol30VDJHNQLSPok4_PoT-11" style="edgeStyle=none;rounded=0;orthogonalLoop=1;jettySize=auto;html=1;exitX=1;exitY=0.5;exitDx=0;exitDy=0;entryX=0;entryY=0.5;entryDx=0;entryDy=0;fontColor=#660033;" edge="1" parent="1" source="Ol30VDJHNQLSPok4_PoT-12" target="Ol30VDJHNQLSPok4_PoT-15">
          <mxGeometry relative="1" as="geometry" />
        </mxCell>
        <mxCell id="Ol30VDJHNQLSPok4_PoT-12" value="" style="ellipse;whiteSpace=wrap;html=1;aspect=fixed;fillColor=#ffe6cc;strokeColor=#d79b00;" vertex="1" parent="1">
          <mxGeometry x="360" y="270" width="30" height="30" as="geometry" />
        </mxCell>
        <mxCell id="Ol30VDJHNQLSPok4_PoT-13" style="edgeStyle=none;rounded=0;orthogonalLoop=1;jettySize=auto;html=1;exitX=1;exitY=0.5;exitDx=0;exitDy=0;entryX=0;entryY=0.5;entryDx=0;entryDy=0;fontColor=#660033;" edge="1" parent="1" source="Ol30VDJHNQLSPok4_PoT-15" target="Ol30VDJHNQLSPok4_PoT-16">
          <mxGeometry relative="1" as="geometry" />
        </mxCell>
        <mxCell id="Ol30VDJHNQLSPok4_PoT-14" style="edgeStyle=none;rounded=0;orthogonalLoop=1;jettySize=auto;html=1;exitX=0.5;exitY=1;exitDx=0;exitDy=0;entryX=0;entryY=0;entryDx=0;entryDy=0;fontColor=#660033;" edge="1" parent="1" source="Ol30VDJHNQLSPok4_PoT-15" target="Ol30VDJHNQLSPok4_PoT-17">
          <mxGeometry relative="1" as="geometry" />
        </mxCell>
        <mxCell id="Ol30VDJHNQLSPok4_PoT-15" value="" style="ellipse;whiteSpace=wrap;html=1;aspect=fixed;fillColor=#ffe6cc;strokeColor=#d79b00;" vertex="1" parent="1">
          <mxGeometry x="409" y="270" width="30" height="30" as="geometry" />
        </mxCell>
        <mxCell id="Ol30VDJHNQLSPok4_PoT-16" value="" style="ellipse;whiteSpace=wrap;html=1;aspect=fixed;fillColor=#ffe6cc;strokeColor=#d79b00;" vertex="1" parent="1">
          <mxGeometry x="460" y="270" width="30" height="30" as="geometry" />
        </mxCell>
        <mxCell id="Ol30VDJHNQLSPok4_PoT-17" value="" style="ellipse;whiteSpace=wrap;html=1;aspect=fixed;fillColor=#d5e8d4;strokeColor=#82b366;" vertex="1" parent="1">
          <mxGeometry x="430" y="320" width="30" height="30" as="geometry" />
        </mxCell>
        <mxCell id="Ol30VDJHNQLSPok4_PoT-18" value="&lt;font color=&quot;#000000&quot;&gt;master&lt;/font&gt;" style="text;html=1;strokeColor=none;fillColor=none;align=center;verticalAlign=middle;whiteSpace=wrap;rounded=0;fontColor=#660033;" vertex="1" parent="1">
          <mxGeometry x="460" y="245" width="60" height="30" as="geometry" />
        </mxCell>
        <mxCell id="Ol30VDJHNQLSPok4_PoT-19" value="&lt;font color=&quot;#000000&quot;&gt;feature-a&lt;/font&gt;" style="text;html=1;strokeColor=none;fillColor=none;align=center;verticalAlign=middle;whiteSpace=wrap;rounded=0;fontColor=#660033;" vertex="1" parent="1">
          <mxGeometry x="450" y="340" width="60" height="30" as="geometry" />
        </mxCell>
        <mxCell id="Ol30VDJHNQLSPok4_PoT-20" value="git@github.com: name/" style="text;html=1;strokeColor=none;fillColor=none;align=center;verticalAlign=middle;whiteSpace=wrap;rounded=0;fontColor=#000000;" vertex="1" parent="1">
          <mxGeometry x="480" y="90" width="140" height="30" as="geometry" />
        </mxCell>
        <mxCell id="Ol30VDJHNQLSPok4_PoT-23" value="&lt;font color=&quot;#000000&quot;&gt;remote&lt;/font&gt;" style="text;html=1;strokeColor=none;fillColor=none;align=center;verticalAlign=middle;whiteSpace=wrap;rounded=0;fontColor=#99004D;" vertex="1" parent="1">
          <mxGeometry x="280" y="285" width="60" height="30" as="geometry" />
        </mxCell>
        <mxCell id="Ol30VDJHNQLSPok4_PoT-30" style="edgeStyle=none;rounded=0;orthogonalLoop=1;jettySize=auto;html=1;exitX=1;exitY=0.5;exitDx=0;exitDy=0;entryX=0;entryY=0.5;entryDx=0;entryDy=0;fontColor=#660033;" edge="1" parent="1" source="Ol30VDJHNQLSPok4_PoT-31" target="Ol30VDJHNQLSPok4_PoT-34">
          <mxGeometry relative="1" as="geometry" />
        </mxCell>
        <mxCell id="Ol30VDJHNQLSPok4_PoT-31" value="" style="ellipse;whiteSpace=wrap;html=1;aspect=fixed;fillColor=#ffe6cc;strokeColor=#d79b00;" vertex="1" parent="1">
          <mxGeometry x="590" y="170" width="30" height="30" as="geometry" />
        </mxCell>
        <mxCell id="Ol30VDJHNQLSPok4_PoT-32" style="edgeStyle=none;rounded=0;orthogonalLoop=1;jettySize=auto;html=1;exitX=1;exitY=0.5;exitDx=0;exitDy=0;entryX=0;entryY=0.5;entryDx=0;entryDy=0;fontColor=#660033;" edge="1" parent="1" source="Ol30VDJHNQLSPok4_PoT-34" target="Ol30VDJHNQLSPok4_PoT-35">
          <mxGeometry relative="1" as="geometry" />
        </mxCell>
        <mxCell id="Ol30VDJHNQLSPok4_PoT-33" style="edgeStyle=none;rounded=0;orthogonalLoop=1;jettySize=auto;html=1;exitX=0.5;exitY=0;exitDx=0;exitDy=0;fontColor=#660033;" edge="1" parent="1" source="Ol30VDJHNQLSPok4_PoT-34">
          <mxGeometry relative="1" as="geometry">
            <mxPoint x="700" y="140" as="targetPoint" />
          </mxGeometry>
        </mxCell>
        <mxCell id="Ol30VDJHNQLSPok4_PoT-34" value="" style="ellipse;whiteSpace=wrap;html=1;aspect=fixed;fillColor=#ffe6cc;strokeColor=#d79b00;" vertex="1" parent="1">
          <mxGeometry x="639" y="170" width="30" height="30" as="geometry" />
        </mxCell>
        <mxCell id="Ol30VDJHNQLSPok4_PoT-35" value="" style="ellipse;whiteSpace=wrap;html=1;aspect=fixed;fillColor=#ffe6cc;strokeColor=#d79b00;" vertex="1" parent="1">
          <mxGeometry x="690" y="170" width="30" height="30" as="geometry" />
        </mxCell>
        <mxCell id="Ol30VDJHNQLSPok4_PoT-36" value="" style="ellipse;whiteSpace=wrap;html=1;aspect=fixed;fillColor=#d5e8d4;strokeColor=#82b366;" vertex="1" parent="1">
          <mxGeometry x="690" y="110" width="30" height="30" as="geometry" />
        </mxCell>
        <mxCell id="Ol30VDJHNQLSPok4_PoT-37" value="&lt;font color=&quot;#000000&quot;&gt;master&lt;/font&gt;" style="text;html=1;strokeColor=none;fillColor=none;align=center;verticalAlign=middle;whiteSpace=wrap;rounded=0;fontColor=#660033;" vertex="1" parent="1">
          <mxGeometry x="710" y="150" width="60" height="30" as="geometry" />
        </mxCell>
        <mxCell id="Ol30VDJHNQLSPok4_PoT-38" value="&lt;font color=&quot;#000000&quot;&gt;feature-a&lt;/font&gt;" style="text;html=1;strokeColor=none;fillColor=none;align=center;verticalAlign=middle;whiteSpace=wrap;rounded=0;fontColor=#660033;" vertex="1" parent="1">
          <mxGeometry x="675" y="80" width="60" height="30" as="geometry" />
        </mxCell>
        <mxCell id="Ol30VDJHNQLSPok4_PoT-40" style="rounded=0;orthogonalLoop=1;jettySize=auto;html=1;exitX=0.5;exitY=0;exitDx=0;exitDy=0;entryX=0.5;entryY=1;entryDx=0;entryDy=0;fontColor=#99004D;" edge="1" parent="1" source="Ol30VDJHNQLSPok4_PoT-39" target="Ol30VDJHNQLSPok4_PoT-23">
          <mxGeometry relative="1" as="geometry" />
        </mxCell>
        <mxCell id="Ol30VDJHNQLSPok4_PoT-39" value="&lt;font color=&quot;#99004d&quot;&gt;&lt;b&gt;remote add alias remoteRepository&lt;/b&gt;&lt;/font&gt;" style="text;html=1;strokeColor=none;fillColor=none;align=center;verticalAlign=middle;whiteSpace=wrap;rounded=0;" vertex="1" parent="1">
          <mxGeometry x="160" y="380" width="230" height="30" as="geometry" />
        </mxCell>
        <mxCell id="Ol30VDJHNQLSPok4_PoT-41" value="&lt;b&gt;&lt;font color=&quot;#99004d&quot;&gt;&lt;br&gt;branch -a&lt;br&gt;remote -v&lt;/font&gt;&lt;/b&gt;" style="text;html=1;strokeColor=none;fillColor=none;align=center;verticalAlign=middle;whiteSpace=wrap;rounded=0;" vertex="1" parent="1">
          <mxGeometry x="180" y="285" width="130" height="30" as="geometry" />
        </mxCell>
        <mxCell id="Ol30VDJHNQLSPok4_PoT-45" value="" style="shape=singleArrow;direction=north;whiteSpace=wrap;html=1;fontColor=#99004D;rotation=60;" vertex="1" parent="1">
          <mxGeometry x="563.82" y="187.14" width="20" height="138.54" as="geometry" />
        </mxCell>
        <mxCell id="Ol30VDJHNQLSPok4_PoT-46" value="&lt;b&gt;&lt;font color=&quot;#000000&quot;&gt;推送分支&lt;/font&gt;&lt;br&gt;push -u&amp;nbsp; remotealias remotebranch&lt;/b&gt;" style="text;html=1;strokeColor=none;fillColor=none;align=center;verticalAlign=middle;whiteSpace=wrap;rounded=0;fontColor=#99004D;rotation=0;" vertex="1" parent="1">
          <mxGeometry x="520" y="295.68" width="206.18" height="30" as="geometry" />
        </mxCell>
      </root>
    </mxGraphModel>
  </diagram>
</mxfile>
